<svg version="1.1" id="Layer_1" xmlns="http://www.w3.org/2000/svg" xmlns:xlink="http://www.w3.org/1999/xlink" x="0px" y="0px"
	 width="100%" viewBox="0 0 1024 528" enable-background="new 0 0 1024 528" xml:space="preserve">
<path fill="#000000" opacity="1.000000" stroke="none" 
	d="
M101.666672,1.000001 
	C103.237320,1.463555 104.455696,1.987817 105.715065,2.380675 
	C113.126320,4.692605 114.916199,7.024597 115.357903,14.837693 
	C115.544533,18.138947 114.867744,21.426577 115.519157,24.756083 
	C115.903778,26.721941 114.389671,28.115639 112.965752,29.327614 
	C106.581970,34.761192 96.573280,34.306992 91.854897,28.371422 
	C85.499176,20.376139 86.202324,10.615895 93.638191,5.089267 
	C95.483803,3.717533 97.602112,2.712717 99.797539,1.269622 
	C100.444443,1.000000 100.888893,1.000000 101.666672,1.000001 
z"/>
<path fill="#000000" opacity="1.000000" stroke="none" 
	d="
M133.263763,462.955688 
	C125.890007,462.903809 118.955940,462.837341 112.021820,462.830383 
	C105.227936,462.823578 98.433731,462.922699 91.640221,462.882080 
	C88.916878,462.865814 87.103241,461.383545 87.074738,458.620331 
	C87.021423,453.453125 85.338829,447.711060 91.627563,444.477203 
	C90.273575,441.675262 88.792061,439.242584 87.886032,436.611725 
	C85.490685,429.656403 88.356003,426.933289 94.937347,424.521545 
	C101.314911,422.184448 106.085114,421.014984 111.336113,426.352875 
	C112.801842,427.842865 116.794960,426.430664 117.676208,429.910522 
	C118.584251,433.496155 117.476662,436.817230 116.060631,440.060150 
	C115.288551,441.828339 113.317200,443.056488 113.745827,446.098877 
	C117.710670,446.307098 121.643356,445.646667 125.497177,444.493286 
	C126.889053,444.076752 126.610649,442.652679 126.623528,441.487488 
	C126.665138,437.723541 128.781021,435.926453 132.349823,436.168762 
	C138.004059,436.552643 143.555206,435.428772 149.379257,435.964905 
	C154.496155,436.435883 160.308502,437.534515 165.564590,436.439301 
	C173.032761,434.883148 180.496582,437.607605 187.757889,435.894440 
	C197.425980,433.613403 206.772186,437.553955 216.393234,436.673401 
	C223.009918,436.067871 229.727371,435.490082 236.450577,436.177979 
	C238.678070,436.405853 240.062393,437.608032 241.468430,438.788971 
	C247.621231,434.518951 254.371933,437.018097 260.788055,436.913910 
	C262.899200,436.879639 262.984253,439.516907 262.929169,441.370270 
	C262.862671,443.606262 261.240662,444.001343 259.446838,444.025024 
	C251.962997,444.123810 244.478897,444.255280 236.994843,444.258636 
	C234.176300,444.259918 231.368988,443.771118 228.754700,445.406555 
	C226.434067,446.858276 225.014069,443.832764 222.750656,444.083740 
	C214.729736,444.973053 206.435913,442.478668 198.602875,446.102325 
	C197.631577,446.551636 196.155838,446.625671 195.174973,446.228607 
	C185.355469,442.253326 175.113586,444.891052 165.092560,444.283752 
	C161.586273,444.071259 157.893555,443.314667 153.865616,444.717834 
	C157.154343,448.618073 156.224365,453.009308 156.380875,457.240845 
	C156.531082,461.302551 154.439896,463.077393 150.592850,462.963287 
	C144.961395,462.796234 139.333542,462.364288 133.263763,462.955688 
z"/>
<path fill="#000000" opacity="1.000000" stroke="none" 
	d="
M138.501694,207.197632 
	C135.927719,207.179626 133.776642,207.144516 131.626648,207.178009 
	C129.537323,207.210541 127.230896,207.200256 127.213608,204.453964 
	C127.197350,201.871887 127.273010,199.139847 131.183228,198.752045 
	C138.547241,198.021698 145.796997,198.741745 153.121658,199.321960 
	C159.665726,199.840363 166.258347,199.984985 172.820953,197.949539 
	C176.710144,196.743271 180.823914,199.470657 185.084229,199.064285 
	C188.312943,198.756332 191.263535,198.187347 194.158630,196.253784 
	C193.175781,194.004089 191.273361,194.396408 189.533432,194.389084 
	C177.102158,194.336685 164.670807,194.291672 152.239746,194.207047 
	C150.535431,194.195450 148.052231,195.137924 147.705139,192.539413 
	C147.364838,189.991898 147.100983,187.213089 148.476746,184.770126 
	C148.929001,183.967041 150.087479,183.743423 150.654755,184.373413 
	C153.841537,187.912537 157.799103,186.058899 161.465729,186.035599 
	C165.956680,186.007065 171.000397,187.485153 174.782898,186.210968 
	C181.799835,183.847229 188.062103,184.240555 194.746841,186.443878 
	C197.230469,187.262482 201.137207,184.325455 202.121948,188.967163 
	C203.001129,193.111328 201.820984,196.519135 197.150406,197.478439 
	C197.487305,199.379944 198.544540,199.451385 199.817337,199.456314 
	C207.794968,199.487213 215.795547,199.977188 223.741241,199.510361 
	C228.640060,199.222549 233.286819,197.968460 237.740601,201.337067 
	C239.396820,202.589737 240.519775,199.521927 242.545502,199.619461 
	C247.027008,199.835236 251.526306,199.720062 256.017731,199.677460 
	C259.015198,199.649033 259.484985,201.418915 259.507812,203.928772 
	C259.533966,206.800354 257.956543,207.086761 255.657745,207.070404 
	C247.539810,207.012604 239.254654,206.081390 231.349121,207.390640 
	C223.425827,208.702866 215.876663,206.372711 208.119049,207.102432 
	C204.299194,207.461746 200.593536,208.081909 196.832352,208.719757 
	C191.609253,209.605560 186.252380,209.917053 181.065262,207.957291 
	C176.884735,206.377838 172.524780,207.320938 168.242615,207.290863 
	C158.470398,207.222229 148.697617,207.232391 138.501694,207.197632 
z"/>
<path fill="#000000" opacity="1.000000" stroke="none" 
	d="
M245.529327,21.873804 
	C249.067200,22.295921 249.644531,24.481741 249.316299,27.007910 
	C248.903137,30.187849 246.299042,28.925211 244.550186,28.962353 
	C236.413284,29.135159 228.150131,28.317484 220.169250,29.480772 
	C212.275253,30.631395 204.460968,27.649660 196.969177,29.474638 
	C187.041779,31.892920 177.461319,29.969706 167.710831,29.384251 
	C162.420776,29.066618 157.088531,29.515453 151.778244,29.432096 
	C150.163925,29.406755 148.844772,29.810946 147.573654,30.649248 
	C146.392578,31.428167 144.917694,31.933838 143.777222,31.323606 
	C139.444122,29.005123 134.869583,29.170069 130.202698,29.390097 
	C127.925262,29.497469 127.031746,27.956137 127.070053,25.781227 
	C127.110901,23.461748 127.973900,21.942591 130.537491,21.847418 
	C134.128540,21.714104 137.717087,21.468718 141.308807,21.417561 
	C143.109116,21.391918 144.964645,21.314880 144.981964,19.108858 
	C145.000900,16.695110 142.781967,16.998421 141.214966,16.923817 
	C137.899384,16.765968 134.565018,16.925127 131.258331,16.682278 
	C128.633896,16.489532 126.913139,15.121783 127.086037,12.146855 
	C127.268829,9.001517 129.292130,8.715855 131.905838,8.481119 
	C138.959778,7.847608 146.057098,8.704510 153.152618,6.900121 
	C155.633469,6.269242 159.698837,7.929263 162.352081,10.106694 
	C163.623505,11.150105 163.385468,12.808702 162.703766,14.280450 
	C161.908203,15.998003 160.580688,16.868864 158.703506,16.553944 
	C155.653198,16.042215 153.179001,16.615456 151.657852,19.446598 
	C155.784012,25.781397 160.958191,21.412302 165.473663,21.060751 
	C168.626602,20.815281 171.635635,20.044563 174.706726,21.320753 
	C175.309433,21.571209 176.039902,21.821436 176.645905,21.711281 
	C188.288147,19.595070 199.885086,22.927412 211.541306,21.945677 
	C216.937607,21.491177 222.705582,19.427738 227.674530,23.678183 
	C232.074646,21.232693 236.907776,22.062517 241.600647,21.849627 
	C242.763000,21.796894 243.929977,21.845520 245.529327,21.873804 
z"/>
<path fill="#000000" opacity="1.000000" stroke="none" 
	d="
M230.963165,317.914246 
	C235.085876,317.821228 238.662109,318.002380 242.338913,317.228333 
	C245.518967,316.558899 248.827332,317.992920 251.198120,320.506622 
	C257.453857,316.332367 264.307892,318.090485 270.806580,318.801422 
	C273.390015,319.084045 272.444519,322.557587 271.999390,325.361389 
	C263.449738,325.361389 254.903183,324.508698 246.604721,325.579132 
	C236.436050,326.890839 226.174149,323.583282 216.468445,325.905182 
	C208.664932,327.772034 201.677383,325.707123 194.306747,325.558807 
	C173.544296,325.141022 152.765991,325.526459 131.993881,325.553192 
	C129.520569,325.556366 126.753952,325.806641 126.958000,321.886230 
	C127.133865,318.507233 129.190506,317.823914 132.034256,317.899231 
	C141.790421,318.157684 151.589661,318.265656 161.301178,318.345520 
	C169.688232,318.414490 178.499023,319.374786 186.871277,316.922089 
	C188.250504,316.518036 189.357513,316.541229 190.693634,316.926147 
	C192.426346,317.425385 194.380753,318.123779 196.034668,317.772125 
	C207.545593,315.324402 218.996918,319.129974 230.963165,317.914246 
z"/>
<path fill="#000000" opacity="1.000000" stroke="none" 
	d="
M149.413818,257.501770 
	C163.657578,258.841003 177.524887,259.536377 191.475159,257.552216 
	C195.917648,256.920380 200.540375,257.676758 205.134796,258.200562 
	C214.660034,259.286530 224.369019,259.377197 233.983673,258.185547 
	C234.967758,258.063538 236.132309,257.354797 236.879959,257.681274 
	C245.091324,261.266998 253.573975,257.796173 261.873383,258.757751 
	C264.355652,259.045349 266.641785,259.268799 266.713989,262.472015 
	C266.783264,265.545471 264.926575,266.371399 262.199585,266.363098 
	C254.743057,266.340393 247.205536,265.742523 239.850510,266.625488 
	C231.181900,267.666107 222.695282,265.774475 214.116882,266.298584 
	C210.957794,266.491577 207.807220,266.597565 204.787292,267.643524 
	C201.511780,268.778015 198.335983,268.830933 195.112137,267.313354 
	C191.335663,265.535614 187.238663,266.311401 183.290894,266.294373 
	C166.682068,266.222748 150.071045,266.209076 133.464111,266.426483 
	C128.721237,266.488525 127.503441,263.954315 127.062080,260.058960 
	C132.401199,256.209625 138.209534,257.693451 143.808319,258.094452 
	C145.663010,258.227264 147.392426,258.682068 149.413818,257.501770 
z"/>
<path fill="#000000" opacity="1.000000" stroke="none" 
	d="
M244.682388,384.724304 
	C239.712585,384.676758 234.732239,383.428467 230.538879,384.725159 
	C222.842896,387.104980 215.562332,383.481750 208.091446,384.617401 
	C204.681213,385.135773 201.113937,384.561798 197.935165,386.485535 
	C196.301331,387.474304 194.385132,387.690643 192.615814,387.044891 
	C183.775055,383.818176 174.639496,384.870880 165.544159,384.895721 
	C154.132431,384.926880 142.722015,384.241638 131.306000,384.963837 
	C129.084946,385.104370 126.762230,384.615662 126.468056,381.771729 
	C126.200203,379.182312 127.947701,378.465149 130.125168,377.361084 
	C133.911316,375.441284 137.188187,375.485504 140.861099,377.217926 
	C144.831848,379.090790 149.108734,377.657318 153.123978,377.476807 
	C163.750137,376.999146 174.381195,378.219788 184.988525,377.086884 
	C187.304672,376.839508 189.614532,376.923096 191.762192,375.757050 
	C193.108688,375.025970 194.643295,374.861694 196.125015,375.407959 
	C206.936569,379.393738 217.957962,377.585114 228.946259,376.607971 
	C229.752258,376.536316 230.766235,375.777863 231.294495,376.062012 
	C239.238251,380.334534 247.643585,376.900269 255.794769,377.524109 
	C260.565399,377.889221 261.516052,379.788849 260.160095,384.671387 
	C255.179901,384.671387 250.103348,384.671387 244.682388,384.724304 
z"/>
<path fill="#000000" opacity="1.000000" stroke="none" 
	d="
M213.548645,88.634674 
	C209.040787,88.534035 204.891327,88.404518 200.740952,88.359932 
	C196.914001,88.318810 193.095169,88.291885 189.591888,90.307877 
	C188.116440,91.156929 186.386169,91.404488 184.747452,90.806641 
	C172.819305,86.455025 160.414566,89.403122 148.271652,88.383751 
	C146.686005,88.250641 145.428619,89.163498 144.148468,89.957161 
	C142.822662,90.779129 141.366852,91.285698 139.902756,90.445374 
	C137.063583,88.815834 134.097717,88.194046 130.811295,88.484657 
	C128.879181,88.655510 127.066536,87.807564 126.776886,85.589340 
	C126.468941,83.230919 127.776199,81.727272 130.078033,81.397964 
	C133.915588,80.848930 137.482346,79.701157 141.715607,80.432121 
	C147.638016,81.454727 153.779404,81.156990 159.973572,79.918076 
	C165.502609,78.812202 171.349258,81.318573 177.168442,81.062958 
	C179.306534,80.969040 181.390091,81.408417 183.362076,79.959869 
	C184.746613,78.942841 186.557007,79.102859 188.195847,79.609772 
	C198.924850,82.928337 209.788559,80.896042 220.610504,80.441315 
	C221.587738,80.400246 222.777359,79.675621 223.493057,80.028839 
	C231.284912,83.874428 239.408554,80.706688 247.342941,81.259132 
	C252.643951,81.628220 253.076569,81.936539 251.864197,88.496559 
	C243.282928,88.496559 234.534210,88.480423 225.785629,88.506546 
	C223.215347,88.514221 220.612381,87.700356 218.274231,89.950699 
	C216.639725,91.523834 215.515182,88.686478 213.548645,88.634674 
z"/>
<path fill="#000000" opacity="1.000000" stroke="none" 
	d="
M127.081894,142.446442 
	C127.494293,140.724518 127.207352,138.552841 129.379059,138.887054 
	C133.858994,139.576462 138.556946,138.025986 142.878876,140.283112 
	C143.723907,140.724426 144.829269,141.159531 145.696259,140.990555 
	C154.593033,139.256485 163.557892,140.732971 172.479675,140.362656 
	C174.080139,140.296234 175.368469,139.866959 176.690201,139.145935 
	C178.192245,138.326553 179.758133,137.898575 181.484894,138.477692 
	C192.527832,142.181320 203.772049,139.500748 214.931396,139.488846 
	C215.734222,139.487991 216.728775,138.793350 217.310349,139.079498 
	C225.115356,142.919708 233.273712,139.478378 241.209381,140.333740 
	C243.868225,140.620331 246.756210,140.234451 246.518738,144.424454 
	C246.301010,148.265930 243.780777,147.820129 241.205185,147.795181 
	C233.570648,147.721237 225.762283,146.741882 218.346069,148.011002 
	C210.076523,149.426163 202.146103,146.937042 194.057434,147.808212 
	C190.283463,148.214691 186.405548,147.660995 182.886414,149.747833 
	C181.242966,150.722397 179.260605,150.640808 177.550766,149.868607 
	C170.962082,146.892975 164.395981,147.040176 157.777069,149.682938 
	C157.323395,149.864090 156.701080,150.180527 156.363998,150.014420 
	C148.293503,146.037369 139.618591,148.870712 131.278732,147.846359 
	C127.670677,147.403198 126.594330,146.072403 127.081894,142.446442 
z"/>
<path fill="#000000" opacity="1.000000" stroke="none" 
	d="
M101.201172,269.350372 
	C92.394150,267.981201 87.697800,263.000824 87.065315,254.814896 
	C86.572556,248.437408 91.208359,241.828644 97.764503,239.562210 
	C104.206291,237.335297 111.900200,240.009705 115.739426,245.810242 
	C119.643623,251.708984 119.228592,259.158203 114.553940,264.260895 
	C111.112610,268.017365 106.860268,269.975250 101.201172,269.350372 
z"/>
<path fill="#000000" opacity="1.000000" stroke="none" 
	d="
M92.907516,207.279297 
	C87.402992,201.907501 85.999550,194.502487 88.973755,187.900116 
	C91.474617,182.348526 97.580025,179.039703 104.135178,179.683426 
	C110.456284,180.304153 116.417511,185.547623 117.987129,192.302322 
	C119.207298,197.553177 117.355797,202.293030 113.820114,206.001251 
	C109.580795,210.447433 104.044350,211.407425 98.173233,209.770599 
	C96.444138,209.288528 94.861984,208.279404 92.907516,207.279297 
z"/>
<path fill="#000000" opacity="1.000000" stroke="none" 
	d="
M89.662262,127.764420 
	C95.308807,120.825554 102.696182,118.800186 109.298592,122.125877 
	C116.052376,125.527809 119.474098,132.633148 117.777809,139.537033 
	C116.109970,146.325104 111.530411,149.936462 104.970772,151.289658 
	C99.429077,152.432861 94.718979,150.956070 91.381332,146.177765 
	C87.428276,140.518433 85.600914,134.584412 89.662262,127.764420 
z"/>
<path fill="#000000" opacity="1.000000" stroke="none" 
	d="
M89.278091,305.503296 
	C93.912575,300.140167 98.112167,298.103363 105.860344,300.072296 
	C111.591858,301.528717 115.070374,303.225342 117.078247,308.080627 
	C119.874809,314.843048 117.268639,322.570984 111.334679,326.591583 
	C105.461494,330.571014 97.981987,330.208130 92.812698,325.692871 
	C86.937622,320.561127 85.528496,313.095398 89.278091,305.503296 
z"/>
<path fill="#000000" opacity="1.000000" stroke="none" 
	d="
M99.526398,388.107605 
	C90.840034,385.128418 87.727356,380.894379 87.769936,372.580322 
	C87.803307,366.064117 91.484291,361.222931 98.160675,358.914520 
	C103.265373,357.149536 107.666611,358.979675 110.183960,363.797516 
	C111.550148,366.412231 112.709625,369.064972 115.310410,370.981506 
	C117.909431,372.896729 117.578262,379.162659 115.010048,382.422241 
	C111.164101,387.303467 105.969223,388.899200 99.526398,388.107605 
z"/>
<path fill="#000000" opacity="1.000000" stroke="none" 
	d="
M109.603729,82.259781 
	C109.856163,91.864120 106.173035,94.509972 97.564453,91.274818 
	C89.164322,88.118004 85.631912,80.328613 88.303001,70.852272 
	C90.150864,64.296547 98.429802,60.148018 106.196373,61.886005 
	C110.783455,62.912491 111.630951,64.892700 110.686745,69.562134 
	C109.872414,73.589325 109.913399,77.789467 109.603729,82.259781 
z"/>
<path fill="#000000" opacity="1.000000" stroke="none" 
	d="
M832.348389,250.755280 
	C843.632935,250.801712 854.519409,250.894974 865.404968,250.827347 
	C868.403809,250.808701 868.989136,252.530106 869.234924,254.910660 
	C869.492188,257.402069 868.698181,259.941986 866.129272,259.526672 
	C859.767883,258.498322 853.511963,260.283234 847.200500,259.590393 
	C845.289368,259.380615 845.333679,257.375183 843.932922,256.888885 
	C839.465881,260.773621 832.313354,260.996735 827.281189,257.268402 
	C824.762512,261.682343 820.341431,259.512848 816.854248,259.750763 
	C810.805603,260.163452 804.674561,259.537964 798.562683,259.831116 
	C795.952515,259.956390 794.841980,258.566376 796.397278,255.998383 
	C797.330322,254.457809 798.259277,252.914734 799.350525,251.106964 
	C804.012146,252.662964 809.051819,250.155045 813.747070,252.431641 
	C818.187500,254.584717 823.089661,249.244110 827.802063,253.199783 
	C829.027344,252.623749 829.814209,250.477707 832.348389,250.755280 
z"/>
<path fill="#000000" opacity="1.000000" stroke="none" 
	d="
M838.346497,191.584229 
	C847.302246,191.665466 855.889709,191.906952 864.463745,191.668152 
	C868.404846,191.558380 869.469849,193.401840 869.445740,196.714355 
	C869.419739,200.290558 867.153625,200.498810 864.314026,200.293381 
	C854.182129,199.560364 844.002991,200.611206 833.911560,200.072525 
	C822.476196,199.462112 811.135315,201.655121 799.738831,200.417526 
	C798.126465,200.242432 796.324951,200.725708 795.392883,198.346176 
	C796.733154,196.563522 798.272949,194.663940 798.949158,191.816208 
	C812.037781,193.883591 825.002869,192.596512 838.346497,191.584229 
z"/>
<path fill="#000000" opacity="1.000000" stroke="none" 
	d="
M808.874390,310.655396 
	C813.764893,312.312225 818.421997,312.448303 822.860962,310.860168 
	C825.601501,309.879700 826.468140,311.136261 827.562073,313.659790 
	C829.409851,309.260315 832.663086,310.481964 835.969849,310.598663 
	C844.625916,310.904175 853.268005,309.788879 861.970459,310.363953 
	C869.339905,310.850891 869.364014,310.486389 868.426575,318.571045 
	C865.421875,319.589539 862.337341,319.869202 859.542725,317.986847 
	C858.071411,316.995850 857.360229,317.755005 856.088257,318.259064 
	C851.755188,319.976105 847.466309,320.214905 843.754333,315.822449 
	C841.032715,321.985291 834.755310,319.070923 831.727417,318.449799 
	C826.976257,317.475159 823.108643,319.661835 818.723755,319.186462 
	C812.047424,318.462677 805.227905,319.157959 798.476379,318.977997 
	C796.099854,318.914642 794.562622,317.784424 796.669800,315.111237 
	C797.669434,313.843170 798.275696,312.264954 799.236816,310.503448 
	C802.221985,311.342834 805.403503,312.048950 808.874390,310.655396 
z"/>
<path fill="#000000" opacity="1.000000" stroke="none" 
	d="
M826.615662,15.443954 
	C839.609863,11.789372 852.799500,14.899660 865.775940,13.741755 
	C868.979370,13.455902 869.070496,15.769261 869.318726,17.981880 
	C869.597900,20.471018 868.902161,22.701057 866.146729,22.525194 
	C863.932861,22.383898 861.622742,23.121229 859.374634,21.767784 
	C856.630188,20.115576 854.165039,23.646593 851.194397,22.652567 
	C848.735840,21.829950 845.229126,23.954754 844.345032,19.598160 
	C839.436646,23.894869 832.533752,24.137300 827.812012,20.544905 
	C823.728455,23.420576 799.548645,23.714031 795.418457,20.732386 
	C796.792419,18.787027 798.359680,16.890411 798.898682,14.465337 
	C805.806580,14.881588 812.562561,14.986615 819.222473,15.840459 
	C821.842285,16.176325 823.842407,12.268958 826.615662,15.443954 
z"/>
<path fill="#000000" opacity="1.000000" stroke="none" 
	d="
M833.064453,369.257141 
	C842.775757,369.107330 852.112183,369.959625 861.498962,369.554077 
	C869.370117,369.214050 869.389832,369.671051 868.254700,377.695831 
	C862.435303,378.819672 861.065735,378.504974 858.106506,375.363953 
	C854.574951,378.665588 848.927185,378.930115 844.398926,376.006042 
	C839.465210,379.516083 832.456848,379.241882 827.989624,375.096405 
	C826.932800,378.229889 824.717407,378.527161 821.722656,378.347198 
	C814.772278,377.929504 807.788452,378.009644 800.818542,378.024139 
	C799.325256,378.027252 797.742004,378.651978 796.752563,377.090027 
	C795.553223,375.196594 797.847961,374.636780 798.352783,373.379089 
	C798.778076,372.319366 799.177795,371.249481 799.556396,370.268341 
	C810.760254,370.166870 821.823486,372.501526 833.064453,369.257141 
z"/>
<path fill="#000000" opacity="1.000000" stroke="none" 
	d="
M834.437988,81.771667 
	C831.747559,82.761711 830.366516,81.062004 828.496948,79.659721 
	C826.368103,81.904533 823.683350,82.361649 820.569885,82.193626 
	C814.121948,81.845650 807.650085,81.943726 801.188293,81.846619 
	C795.860779,81.766556 795.678223,81.437653 798.209290,76.960136 
	C798.767456,75.972740 799.137817,74.879211 799.655640,73.695297 
	C822.231445,76.629318 844.717896,70.233780 867.422852,74.243408 
	C868.238220,76.555893 868.728455,79.020233 867.194885,81.367775 
	C865.195129,81.563400 865.394714,79.378082 864.204285,79.034195 
	C862.820129,79.428085 863.248474,81.325256 861.810547,81.477386 
	C860.170776,81.508446 860.510132,79.220253 858.657349,79.035309 
	C857.213013,82.767105 853.553711,82.941948 851.174927,81.247063 
	C848.955078,79.665413 845.544800,83.577492 844.943420,78.302116 
	C842.090088,83.005058 838.460632,82.396233 834.437988,81.771667 
z"/>
<path fill="#000000" opacity="1.000000" stroke="none" 
	d="
M168.577454,371.873108 
	C163.975449,370.863525 159.916794,372.517090 155.757156,372.262573 
	C152.327606,372.052734 150.348465,371.019867 150.820526,367.187622 
	C151.284042,363.424683 153.710098,363.543915 156.651474,363.692810 
	C161.605392,363.943542 166.581467,363.749664 171.548187,363.756226 
	C180.507797,363.768066 189.467392,363.799133 198.427002,363.801819 
	C201.177017,363.802643 203.377426,364.289948 203.507187,367.774200 
	C203.646362,371.511169 201.465973,372.163635 198.426697,372.130737 
	C188.626022,372.024597 178.824631,371.984283 168.577454,371.873108 
z"/>
<path fill="#000000" opacity="1.000000" stroke="none" 
	d="
M165.392273,422.588593 
	C171.614822,424.156311 177.438202,423.101044 183.237671,422.081848 
	C184.285828,421.897644 185.227310,420.538879 186.403244,421.395142 
	C191.364624,425.007629 196.923172,423.292572 202.254456,423.158264 
	C205.512527,423.076141 207.991928,423.480011 208.066620,427.380951 
	C208.144012,431.422821 205.220200,431.122711 202.494049,431.114197 
	C190.328491,431.076202 178.162094,430.974274 165.997589,431.078766 
	C160.850159,431.122986 158.624023,428.422089 160.314346,423.623230 
	C161.289368,420.855225 162.833740,420.277222 165.392273,422.588593 
z"/>
<path fill="#000000" opacity="1.000000" stroke="none" 
	d="
M205.374847,303.504913 
	C208.011826,304.168030 210.222122,305.116577 212.601929,304.563263 
	C216.581802,303.637939 217.537659,306.020599 217.808624,309.220856 
	C218.134750,313.072906 215.414444,312.271667 213.130829,312.422333 
	C201.242676,313.206604 189.334473,311.698547 177.446320,312.799072 
	C174.949341,313.030212 172.203751,313.052246 171.903839,309.449768 
	C171.596985,305.764130 173.737534,304.305237 177.038437,304.308502 
	C181.810623,304.313263 186.594727,304.341309 191.351242,304.677765 
	C196.005859,305.006958 200.324493,302.465973 205.374847,303.504913 
z"/>
<path fill="#000000" opacity="1.000000" stroke="none" 
	d="
M133.267365,244.497437 
	C133.880753,244.158310 134.218689,243.784073 134.441727,243.843201 
	C138.581619,244.940735 142.692871,244.448502 146.890854,244.366394 
	C150.026306,244.305084 153.195160,243.819717 155.989212,243.917603 
	C159.992462,244.057861 164.669632,244.898849 168.583481,246.859894 
	C170.065002,247.602219 170.307083,249.646255 169.437057,251.352631 
	C168.473587,253.242279 166.877731,253.568558 164.841690,253.491486 
	C154.490234,253.099594 144.049835,252.630875 133.796021,253.142624 
	C127.147278,253.474457 127.938904,250.379364 127.241623,246.773453 
	C128.959000,245.128159 131.248322,245.715698 133.267365,244.497437 
z"/>
<path fill="#000000" opacity="1.000000" stroke="none" 
	d="
M158.277039,304.552734 
	C161.138672,304.488708 163.623245,304.401215 166.100174,304.501709 
	C169.281738,304.630859 169.650421,306.923279 169.705551,309.435150 
	C169.758270,311.836823 168.456451,312.658478 166.261124,312.645538 
	C154.889755,312.578522 143.518127,312.549652 132.146881,312.466858 
	C129.619217,312.448425 126.945595,312.589966 127.040436,308.751007 
	C127.126160,305.281067 128.831375,304.230164 132.152679,304.322662 
	C140.730026,304.561584 149.314789,304.533966 158.277039,304.552734 
z"/>
<path fill="#000000" opacity="1.000000" stroke="none" 
	d="
M837.694580,141.413177 
	C835.480225,141.374924 833.642334,141.429123 831.830078,141.238892 
	C829.172729,140.959976 828.156494,139.087494 828.175964,136.695099 
	C828.193787,134.505402 829.218872,132.480209 831.574890,132.457886 
	C843.161987,132.348022 854.751892,132.397156 866.339172,132.530197 
	C869.695190,132.568741 868.650696,135.769928 869.136108,137.545883 
	C869.693726,139.585938 868.099609,141.519653 866.076050,141.088882 
	C859.874939,139.768814 853.726807,140.671356 847.574707,140.985794 
	C845.284119,141.102890 845.451843,138.564590 843.432373,138.232254 
	C842.326355,140.166687 840.762512,141.807053 837.694580,141.413177 
z"/>
<path fill="#000000" opacity="1.000000" stroke="none" 
	d="
M182.704010,253.343521 
	C180.911331,252.793640 179.546768,252.616943 178.006424,253.172470 
	C176.289627,253.791611 174.217453,254.195908 173.031265,252.330765 
	C171.645538,250.151825 171.379272,247.665695 172.445053,245.178406 
	C173.067429,243.725876 173.958847,243.390244 175.598633,243.820374 
	C186.238480,246.611450 197.013519,246.247269 207.707214,244.393585 
	C211.227402,243.783371 212.349258,244.601089 212.105942,247.927658 
	C211.988586,249.532013 211.889114,251.137665 211.777222,252.807404 
	C202.092987,253.478577 192.596344,254.194473 182.704010,253.343521 
z"/>
<path fill="#000000" opacity="1.000000" stroke="none" 
	d="
M841.917236,428.769592 
	C849.847839,428.738525 857.311279,428.993042 864.742432,428.614014 
	C868.848267,428.404633 868.968140,430.953857 869.201599,433.549927 
	C869.488831,436.744324 867.377441,437.496399 864.694885,437.245728 
	C862.312439,437.023102 859.632080,437.629791 858.315125,434.845947 
	C853.420593,438.223694 848.189880,438.170715 843.899353,434.724701 
	C840.342773,438.728577 835.464539,436.512817 831.115845,437.089081 
	C829.008301,437.368378 828.300415,435.033356 828.299622,433.107941 
	C828.298584,430.701508 829.278931,428.799133 831.989258,428.710510 
	C835.134094,428.607666 838.287109,428.753052 841.917236,428.769592 
z"/>
<path fill="#000000" opacity="1.000000" stroke="none" 
	d="
M173.293915,127.055672 
	C176.676498,127.048180 179.653915,126.838585 182.619736,126.946632 
	C185.627548,127.056198 186.514084,129.265320 186.359467,131.799118 
	C186.182358,134.701965 184.055832,134.373856 181.756561,134.781860 
	C176.133270,135.779755 170.504196,133.338318 164.581192,136.334488 
	C161.900116,137.690720 156.366623,134.899765 152.093369,134.138153 
	C151.673355,134.063309 151.204666,133.123276 151.113892,132.530426 
	C150.642105,129.449829 150.819183,126.743462 155.031494,126.802727 
	C160.981934,126.886436 166.932892,126.931396 173.293915,127.055672 
z"/>
<path fill="#000000" opacity="1.000000" stroke="none" 
	d="
M153.507782,423.378845 
	C155.343353,423.700806 157.139526,422.276550 158.644150,424.754547 
	C157.709473,426.815155 156.697586,429.213593 155.537155,431.537872 
	C154.899994,432.814026 153.527405,433.917725 152.297073,433.135529 
	C145.984589,429.122192 139.033722,431.951691 132.437225,431.144196 
	C129.604385,430.797424 127.238480,430.445404 127.087479,427.405945 
	C126.911369,423.861023 129.541748,423.714691 132.509689,423.321625 
	C137.057724,422.719238 141.885605,424.419220 146.240189,421.101135 
	C148.576889,419.320587 151.254501,421.217590 153.507782,423.378845 
z"/>
<path fill="#000000" opacity="1.000000" stroke="none" 
	d="
M149.105209,67.767326 
	C152.861664,67.771408 156.148422,67.771408 159.807053,67.771408 
	C159.017776,72.554100 157.794144,74.594200 152.499832,75.895523 
	C145.998825,77.493431 140.550598,76.776695 134.651047,75.030533 
	C133.647064,74.733368 132.388779,75.421516 131.242355,75.453751 
	C128.700592,75.525223 126.933083,74.364075 127.065536,71.681740 
	C127.187103,69.219810 128.793243,67.343605 131.299896,67.924034 
	C133.874756,68.520248 135.805664,67.892235 137.792831,66.563301 
	C139.018997,65.743309 140.170746,65.684906 141.415985,66.716858 
	C143.571350,68.503052 146.249527,67.235405 149.105209,67.767326 
z"/>
<path fill="#000000" opacity="1.000000" stroke="none" 
	d="
M175.898041,67.626266 
	C180.766983,67.681419 185.244354,67.821167 189.704071,67.602112 
	C193.100006,67.435303 194.081665,69.182365 194.214127,72.103333 
	C194.353607,75.178070 192.592499,75.471268 190.060593,75.489220 
	C183.434280,75.536179 176.810638,75.974236 170.184433,76.015800 
	C167.463791,76.032867 164.267792,76.430351 162.841888,73.114357 
	C162.036606,71.241646 162.583527,69.511688 164.271652,68.258835 
	C167.152557,66.120781 170.083771,64.245056 173.758804,66.607391 
	C174.313141,66.963730 174.917603,67.242111 175.898041,67.626266 
z"/>
<path fill="#000000" opacity="1.000000" stroke="none" 
	d="
M805.931091,133.288467 
	C810.518433,132.405731 814.516724,135.071686 818.839600,134.066360 
	C819.716370,133.862442 820.760071,134.250885 821.709961,133.751785 
	C823.108826,133.016693 824.624695,131.479813 826.060486,133.430237 
	C827.200378,134.978775 827.019775,136.870377 826.538208,138.712189 
	C826.029541,140.658112 824.737976,141.347473 822.855591,141.327286 
	C816.218262,141.256073 809.549683,141.552322 802.959900,140.962158 
	C800.629822,140.753510 797.011536,143.175644 795.923401,139.607849 
	C795.261230,137.436310 798.932983,136.039062 799.009338,133.439789 
	C801.382080,132.933273 803.501953,134.318100 805.931091,133.288467 
z"/>
<path fill="#000000" opacity="1.000000" stroke="none" 
	d="
M814.040405,430.574646 
	C817.903687,429.906433 821.835083,431.874695 824.653931,428.183167 
	C827.018677,430.805817 827.011780,433.252869 826.111389,435.598145 
	C825.157227,438.083405 822.786743,437.207764 820.875732,437.206085 
	C813.746338,437.199768 806.616760,437.140625 799.487549,437.166748 
	C798.148071,437.171692 796.698425,437.548248 795.930115,436.109772 
	C795.008606,434.384308 796.883362,433.979401 797.562500,432.974640 
	C798.286987,431.902557 798.688171,430.612000 799.380676,429.085938 
	C804.019409,430.621094 809.044434,427.855591 814.040405,430.574646 
z"/>
<path fill="#000000" opacity="1.000000" stroke="none" 
	d="
M135.894897,134.820068 
	C133.771576,134.741943 131.958405,134.573486 130.149796,134.613083 
	C126.764198,134.687164 127.168205,132.115067 127.012337,130.094101 
	C126.851334,128.006439 126.415016,124.893646 129.318756,125.033966 
	C131.941452,125.160713 134.583450,124.450188 137.105667,125.070282 
	C138.799698,125.486755 140.224472,125.437149 141.913315,125.019386 
	C146.002502,124.007858 148.342712,126.079765 148.229782,130.375504 
	C148.195908,131.663986 149.074890,132.961182 147.839615,134.823639 
	C144.214188,134.823639 140.210632,134.823639 135.894897,134.820068 
z"/>
<path fill="#000000" opacity="1.000000" stroke="none" 
	d="
M182.500473,6.791446 
	C185.247650,8.483064 189.468597,7.808324 189.253204,12.542784 
	C189.137833,15.078960 188.549103,16.783842 185.655045,16.734516 
	C180.213181,16.641769 174.769424,16.607355 169.330292,16.430534 
	C166.815582,16.348785 165.951813,14.473323 165.896149,12.335020 
	C165.834106,9.950974 167.500809,8.235211 169.593552,8.510643 
	C174.046616,9.096719 178.006531,7.442984 182.500473,6.791446 
z"/>
<path fill="#000000" opacity="1.000000" stroke="none" 
	d="
M138.939209,361.778992 
	C141.426010,362.299988 143.160095,363.635742 145.364166,364.013550 
	C147.776154,364.427002 148.208633,366.588806 148.000046,368.725037 
	C147.789886,370.877625 146.403671,372.009949 144.315018,372.055084 
	C139.821609,372.152100 135.325424,372.157043 130.830643,372.136383 
	C128.710983,372.126617 127.345001,371.086395 127.161438,368.872772 
	C126.989990,366.805206 127.035660,364.320099 129.466599,364.009827 
	C132.621109,363.607239 135.271408,361.452423 138.939209,361.778992 
z"/>
<path fill="#000000" opacity="1.000000" stroke="none" 
	d="
M139.520752,185.641174 
	C141.501022,184.699951 143.156815,182.306717 144.707886,185.450729 
	C146.100571,188.273682 144.515823,194.020523 142.119797,194.561569 
	C138.208450,195.444809 134.187424,195.570129 130.242294,194.752640 
	C128.055161,194.299454 126.785278,192.891693 127.284706,190.387070 
	C127.730972,188.149078 128.234497,185.923523 131.222366,186.372467 
	C133.938110,186.780502 136.510574,186.091080 139.520752,185.641174 
z"/>
</svg>